<?xml version="1.0" encoding="utf-8"?>
<!-- Generator: Adobe Illustrator 24.1.0, SVG Export Plug-In . SVG Version: 6.00 Build 0)  -->
<svg version="1.1" id="圖層_1" xmlns="http://www.w3.org/2000/svg" xmlns:xlink="http://www.w3.org/1999/xlink" x="0px" y="0px"
	 viewBox="0 0 361 331.6" style="enable-background:new 0 0 361 331.6;" xml:space="preserve">
<style type="text/css">
	.st0{fill:#DE473B;}
	.st1{fill:#F39B3E;}
</style>
<g id="圖層_2_1_" transform="translate(-228.39 -82.41)">
	<g id="麵包蟲01" transform="translate(228.39 82.41)">
		<path id="路径_978" class="st0" d="M40.3,169.1v-5.6c0-0.5-0.1-1-0.2-1.5c-0.2-0.7-0.7-1.2-1.3-1.3c-0.5-0.1-1-0.2-1.4-0.2
			c-0.5,0-1,0-1.4,0h-7.1c-0.1,0-0.2,0-0.3-0.1c0.1,0,0.2,0,0.2-0.1h7.7c0.7,0,1.4-0.1,2.1-0.2c0.8-0.2,1.5-0.8,1.6-1.7
			c0.1-0.6,0.2-1.1,0.2-1.7v-10.8c0-0.1,0-0.2,0-0.2s0.1,0.1,0.1,0.2v10.3c0,0.8,0.1,1.5,0.3,2.3c0.2,0.7,0.7,1.3,1.4,1.4
			c0.7,0.2,1.5,0.3,2.2,0.3h9.3c0,0,0,0,0,0.1c0,0,0,0,0,0h-9.4c-0.8,0-1.5,0.1-2.2,0.3c-0.7,0.2-1.2,0.7-1.4,1.4
			c-0.1,0.5-0.2,1-0.2,1.5c-0.1,0.7-0.1,1.5-0.1,2.3v9c0,0.1,0,0.1,0,0.2c0,0,0,0-0.1,0.1c0,0,0,0-0.1-0.1c0-0.1,0-0.1,0-0.2
			L40.3,169.1L40.3,169.1z"/>
		<path id="路径_980" class="st0" d="M59.4,180.9v-3.7c0-0.3-0.1-0.7-0.2-1c-0.1-0.4-0.4-0.8-0.9-0.9c-0.3-0.1-0.6-0.1-0.9-0.2
			c-0.3,0-0.7,0-0.9,0h-4.6c-0.1,0-0.1,0-0.2,0c0.1,0,0.1,0,0.2,0h5.1c0.5,0,0.9,0,1.4-0.2c0.5-0.1,1-0.5,1-1.1
			c0.1-0.4,0.1-0.7,0.1-1.1v-7c0,0,0-0.1,0-0.1s0.1,0.1,0.1,0.1v6.7c0,0.5,0.1,1,0.2,1.5c0.1,0.5,0.5,0.8,0.9,0.9
			c0.5,0.1,1,0.2,1.5,0.2h6.1c0,0,0,0,0,0c0,0,0,0,0,0h-6.1c-0.5,0-1,0.1-1.5,0.2c-0.5,0.1-0.8,0.5-0.9,0.9c-0.1,0.3-0.1,0.7-0.2,1
			c0,0.5,0,1,0,1.5v5.9c0,0,0,0.1,0,0.1c0,0,0,0,0,0c0,0,0,0,0,0c0,0,0-0.1,0-0.1L59.4,180.9L59.4,180.9z"/>
		<path id="路径_979" class="st1" d="M299.7,82.3V67.5c0-1.3-0.2-2.6-0.6-3.9c-0.4-1.7-1.8-3.1-3.5-3.5c-1.2-0.3-2.5-0.5-3.8-0.6
			c-1.3-0.1-2.6-0.1-3.9-0.1h-18.5c-0.2,0-0.5-0.1-0.7-0.2c0.2-0.1,0.4-0.1,0.6-0.1h20.3c1.8,0,3.6-0.2,5.4-0.6
			c2.2-0.4,3.9-2.1,4.3-4.4c0.3-1.5,0.5-3,0.5-4.5V17.8c0-0.2,0-0.3,0.1-0.4c0.3,0,0.3,0.2,0.3,0.5v16.3c0,4.8,0,9.7,0,14.5
			c0,2,0.2,4,0.7,6c0.4,1.8,1.9,3.3,3.7,3.7c1.9,0.5,3.9,0.7,5.8,0.7h24c0.2,0,0.4,0,0.5,0c0.1,0,0.1,0.1,0.1,0.1
			c0,0.1-0.1,0.1-0.1,0.1c-0.2,0-0.4,0-0.5,0h-24.1c-2,0-3.9,0.2-5.8,0.7c-1.8,0.4-3.2,1.8-3.6,3.7c-0.3,1.3-0.5,2.7-0.6,4
			c-0.1,2-0.2,4-0.2,6v23.5c0,0.2,0,0.4,0,0.6c0,0.1-0.1,0.1-0.2,0.2s-0.1-0.1-0.1-0.2c0-0.2,0-0.3,0-0.5V82.3H299.7z"/>
		<rect id="矩形_537" x="53.2" y="23" class="st1" width="6.9" height="6.8"/>
		<rect id="矩形_538" x="41.1" y="33.2" class="st1" width="6.9" height="6.8"/>
		<rect id="矩形_539" x="15.4" y="324.8" class="st1" width="6.9" height="6.8"/>
		<rect id="矩形_540" x="354.1" y="186.2" class="st0" width="6.9" height="6.8"/>
		<rect id="矩形_541" x="341.7" y="175" class="st0" width="6.9" height="6.8"/>
		<rect id="矩形_545" x="0" y="0" class="st0" width="6.9" height="6.8"/>
	</g>
</g>
</svg>
