<svg xmlns="http://www.w3.org/2000/svg" viewBox="0 0 361.01 331.57"><defs><style>.cls-1{fill:#61b2b6;}.cls-2{fill:#417eb4;}</style></defs><g id="圖層_2" data-name="圖層 2"><g id="麵包蟲01"><g id="圖層_2-2" data-name="圖層 2"><g id="麵包蟲01-2" data-name="麵包蟲01"><path id="路径_978" data-name="路径 978" class="cls-1" d="M40.29,169.07v-5.63a5.33,5.33,0,0,0-.24-1.48,1.77,1.77,0,0,0-1.33-1.33,9,9,0,0,0-1.45-.24c-.49,0-1,0-1.45,0H28.74a1.1,1.1,0,0,1-.26-.06,2.27,2.27,0,0,1,.25-.06h7.72a8.45,8.45,0,0,0,2.06-.23,2,2,0,0,0,1.59-1.65,8.38,8.38,0,0,0,.18-1.72V145.88c0-.06,0-.17,0-.17s.12.08.12.18v10.29a8.48,8.48,0,0,0,.28,2.3,1.88,1.88,0,0,0,1.4,1.42,8.71,8.71,0,0,0,2.22.27h9.34s.05,0,.05.06,0,0-.05,0H44.33a8.29,8.29,0,0,0-2.22.28,1.82,1.82,0,0,0-1.37,1.39,9.75,9.75,0,0,0-.24,1.53c-.06.75-.06,1.5-.07,2.26v9.19l-.07.07,0-.07a.61.61,0,0,1,0-.19V169Z"/><path id="路径_980" data-name="路径 980" class="cls-1" d="M59.41,180.85v-3.69a3.58,3.58,0,0,0-.16-1,1.17,1.17,0,0,0-.88-.87,7.38,7.38,0,0,0-.94-.16H51.84l-.16,0,.16,0h5a6.07,6.07,0,0,0,1.35-.15,1.33,1.33,0,0,0,1-1.09,6,6,0,0,0,.11-1.12v-7s0-.11,0-.11.08.05.08.12v6.73a6.37,6.37,0,0,0,.18,1.51,1.25,1.25,0,0,0,.92.93,6,6,0,0,0,1.46.18h6.12l0,0s0,0,0,0H62.05a5.45,5.45,0,0,0-1.45.19,1.18,1.18,0,0,0-.9.9,6.93,6.93,0,0,0-.16,1c0,.5,0,1,0,1.49v6l0,0,0,0v-3.83Z"/><path id="路径_979" data-name="路径 979" class="cls-1" d="M299.66,82.34V67.53a14.39,14.39,0,0,0-.63-3.91,4.77,4.77,0,0,0-3.52-3.49,27.16,27.16,0,0,0-3.8-.64c-1.29-.12-2.61-.12-3.91-.12H269.28a2.55,2.55,0,0,1-.67-.18,3.56,3.56,0,0,1,.65-.13h20.29a25.36,25.36,0,0,0,5.42-.6,5.23,5.23,0,0,0,4.25-4.36,22.26,22.26,0,0,0,.47-4.53V17.77a.78.78,0,0,1,.13-.44c.27,0,.3.22.3.46V34.08c0,4.83,0,9.66.05,14.49a23.81,23.81,0,0,0,.73,6,5,5,0,0,0,3.7,3.72,21.68,21.68,0,0,0,5.84.71H335a.28.28,0,0,1,.12.14.23.23,0,0,1-.13.14H310.34a21.63,21.63,0,0,0-5.83.73,4.76,4.76,0,0,0-3.62,3.66,24.66,24.66,0,0,0-.63,4c-.14,2-.17,4-.17,6v23.5a5.81,5.81,0,0,1,0,.59c0,.06-.11.11-.17.17s-.12-.13-.13-.2a3.84,3.84,0,0,1,0-.48V82.34Z"/><rect id="矩形_537" data-name="矩形 537" class="cls-2" x="53.21" y="22.97" width="6.9" height="6.77"/><rect id="矩形_538" data-name="矩形 538" class="cls-2" x="41.11" y="33.17" width="6.9" height="6.77"/><rect id="矩形_539" data-name="矩形 539" class="cls-2" x="15.41" y="324.8" width="6.9" height="6.77"/><rect id="矩形_540" data-name="矩形 540" class="cls-2" x="354.11" y="186.19" width="6.9" height="6.77"/><rect id="矩形_541" data-name="矩形 541" class="cls-2" x="341.73" y="174.99" width="6.9" height="6.77"/><rect id="矩形_545" data-name="矩形 545" class="cls-2" width="6.9" height="6.77"/></g></g></g></g></svg>