<?xml version="1.0" encoding="utf-8"?>
<!-- Generator: Adobe Illustrator 24.1.0, SVG Export Plug-In . SVG Version: 6.00 Build 0)  -->
<svg version="1.1" id="圖層_1" xmlns="http://www.w3.org/2000/svg" xmlns:xlink="http://www.w3.org/1999/xlink" x="0px" y="0px"
	 viewBox="0 0 241.3 27.5" style="enable-background:new 0 0 241.3 27.5;" xml:space="preserve">
<style type="text/css">
	.st0{fill:#A7CE49;}
</style>
<g id="圖層_2_1_">
	<g id="圖層_1-2">
		<polygon class="st0" points="0.8,7.9 5.3,4.9 5.4,24.3 0.9,27.5 		"/>
		<polygon class="st0" points="2.3,27.1 6.7,24 19.4,24 15.1,27.1 		"/>
		<polygon class="st0" points="1.6,3.8 6.3,0.6 20.9,0.6 16.3,3.8 		"/>
		<polygon class="st0" points="16.9,4.3 21.2,1.2 24.7,2.9 24.2,3 24.3,18.8 19.9,21.8 19.9,5.6 		"/>
		<polygon class="st0" points="27.9,3.9 32.2,0.9 39.1,8.4 34.8,11.3 		"/>
		<polygon class="st0" points="41.6,22.6 35.2,27 35.2,11.8 44.3,5.5 45.2,6.8 45.2,3.1 49.6,0.3 49.6,5.1 41.7,10.5 40.1,8.6 
			39.6,9 39.7,23.5 41.4,22.3 		"/>
		<polygon class="st0" points="52.2,2.9 55.9,0.3 59.9,2.4 63.8,2.4 65.6,3.8 61.4,6.9 59.9,5.5 55.8,5.5 		"/>
		<polygon class="st0" points="64,6 67.7,2.9 78.3,2.9 76.2,4.4 77,5 77,7.9 72.8,10.9 72.8,7.8 72,7.2 73.7,5.9 		"/>
		<path class="st0" d="M60,10.3l3.4-2.5c0,0,1.3-1.1,2-0.7s0.7,1,0.7,2.4v14.1l3.3-2.5l0.2,0.2l-7.5,5.5V11c0-0.3,0.1-1.6-1.2-1
			l-0.7,0.5L60,10.3z"/>
		<path class="st0" d="M79,4.8l4.9-3.3c0,0,0.5-0.3,1.2-0.7s1-0.7,2.3,0.1c0.6,0.4,1.4,0.7,2.1,0.9L90,2l-4.7,3.3
			c-0.9-0.2-1.7-0.5-2.5-1c-1.1-0.8-3.6,0.8-3.6,0.8L79,4.8z"/>
		<path class="st0" d="M83.9,7.2c0,0,7.1-4.9,7.4-5.2s1.2-0.9,4.1-0.1s4.6,0.2,5.2-0.2s1.2-0.8,1.2-0.8l0.3,0.2l-6.7,4.4L91,5.3V23
			l-4.8,3.3h-7.4l5.1-3.6h2.4V7.4l3.5-2.3c-1.1-0.5-2.4-0.3-3.3,0.5C84.2,7.1,84,7.3,84,7.3L83.9,7.2z"/>
		<path class="st0" d="M87.9,26l4.5-3.3c0,0,2.8-1.1,3.9,0.2c1.2-0.7,2.5-1.6,2.5-1.6l-1.4,2.2l-4.7,3.2c0,0-1.6-0.8-2.2-1
			C89.7,25.2,87.9,26,87.9,26z"/>
		<polygon class="st0" points="101.3,5.3 101.3,12.7 101.8,13.1 104.9,10.7 104.9,3.2 119.5,3.2 123.4,0.1 107.3,0.1 		"/>
		<path class="st0" d="M101.8,14l3.2-2.4c0.6,1,1.8,1.3,2.9,0.9c0.9-0.4,1.7-0.9,2.4-1.5l0.2,0.1l-6.8,5.3L101.8,14z"/>
		<polygon class="st0" points="108.2,13.9 105.2,16.3 105.4,16.8 116.1,16.8 119.2,14.3 118.9,13.9 		"/>
		<polygon class="st0" points="116.5,17.2 119.6,14.7 121.1,16.6 120.3,17.2 120.3,23.7 117.2,26.3 116.8,25.9 116.8,23.6 113,26.3 
			99.4,26.3 103.5,23.4 116.5,23.3 116.9,23 116.9,18.7 117.5,18.3 		"/>
		<polygon class="st0" points="122.8,4.8 122.8,14.4 127.8,11.7 127.8,3.2 142.6,3.1 147.2,0.2 130.9,0.2 		"/>
		<path class="st0" d="M123.5,15.5l4.7-2.7l2.5,2.5l-1.4,0.8v6c0,0-0.1,1.2,0.8,1.1c0.9-0.4,1.8-0.9,2.6-1.5l0.3,0.2
			c0,0-5.9,4-6.8,4.2c-0.6,0.2-1.3-0.1-1.5-0.7c-0.1-0.2-0.1-0.3-0.1-0.5v-6.6l0.9-0.5L123.5,15.5z"/>
		<polygon class="st0" points="127.2,26.3 132.2,23.4 143.7,23.3 140.1,26.4 		"/>
		<path class="st0" d="M144.8,5c0,0,1.4-1.2,2.2-1.2s0.6,0.1,1.6,0.7c0.6,0.4,1.3,0.6,2,0.8l5-3.5c-0.6,0-1.2-0.1-1.7-0.3
			c-0.6-0.5-1.4-0.8-2.2-1c-0.8,0.2-1.6,0.5-2.2,1l-5,3.3L144.8,5z"/>
		<path class="st0" d="M151.4,5.5l5.7-3.9c1.1-0.4,2.3-0.4,3.5,0c1.9,0.7,5.8,0.1,5.8,0.1L161,5.3c-1.5,0.1-2.9,0-4.4-0.2
			c-1.3-0.4-2.4-0.7-3.3-0.2c-0.6,0.3-1.2,0.7-1.7,1.1L151.4,5.5z"/>
		<polygon class="st0" points="151.9,7.2 156.7,4.1 156.7,22.7 151.9,26 144.3,26 149.2,22.5 152.1,22.5 		"/>
		<path class="st0" d="M153,25.9l4.9-3.4c0.8-0.3,1.7-0.5,2.6-0.5c0.5,0.1,1,0.3,1.5,0.6l2.4-1.6l-1.3,2.2l-4.6,3
			c-0.8-0.1-1.6-0.4-2.3-0.8c-0.9-0.6-3,0.7-3,0.7L153,25.9z"/>
		<polygon class="st0" points="166.9,7.4 171.4,4.3 171.5,23.6 167,26.7 		"/>
		<polygon class="st0" points="167.7,3.2 172.3,0.1 186.8,0.1 182.5,3.1 		"/>
		<polygon class="st0" points="168.3,26.5 172.9,23.4 185.5,23.4 181.1,26.5 		"/>
		<polygon class="st0" points="183.1,3.6 187.3,0.6 190.8,2.2 190.4,2.4 190.4,18.1 186.1,21.3 186,5 		"/>
		<path class="st0" d="M197.5,15.8l-4,2.6V5.1l7.2-4.6c1.2,1.2,2.9,1.8,4.5,1.7l3-2.2c0,0,2.9,2.1,5.6,2l-3.9,2.7c0,0-4-0.6-5.6-1.8
			l-3.3,1.8c-1.2-0.1-2.4-0.4-3.5-0.9L197.5,15.8z"/>
		<polygon class="st0" points="193.4,25.5 193.4,19.6 197.3,16.9 197.4,22.8 		"/>
		<path class="st0" d="M207.3,16.4l3.2-2.2v11l3.9-2.6l-0.1-19.8l-3.9,2.4v8.4l-1,0.8c-0.9-0.4-1.8-0.8-2.7-1
			c-1.7-0.6-3.6-0.4-5.2,0.6l-3.5,2.4l0.1,0.2c0.4-0.4,1-0.6,1.5-0.8c1.6,0,3.2,0.3,4.8,0.8l1.3,0.5
			C205.7,17.3,206.8,16.7,207.3,16.4z"/>
		<polygon class="st0" points="217.3,4.9 217.3,13.3 221.8,10.5 221.8,2.9 236.8,2.9 241.3,0 225.1,0 		"/>
		<polygon class="st0" points="217.3,14.1 222,11.4 222,17 223.7,18.6 223.8,23.3 238.7,23.3 233.9,26.2 219.1,26.3 219.1,21.1 
			217.3,19.8 		"/>
		<polygon class="st0" points="228.4,9.6 228.4,12.1 237.8,12.1 233.3,14.9 223.8,14.9 223.8,12.8 221.9,13.9 221.9,13.6 		"/>
		<rect x="-0.5" y="2.7" transform="matrix(0.8255 -0.5644 0.5644 0.8255 -1.096 2.354)" class="st0" width="7.6" height="0.4"/>
		<rect x="13.7" y="3.6" transform="matrix(0.8143 -0.5804 0.5804 0.8143 1.1159 11.0873)" class="st0" width="8.4" height="0.4"/>
		<polygon class="st0" points="25.6,6 25.4,5.7 32.2,0.9 32.5,1.2 		"/>
		<polygon class="st0" points="34.7,11.6 34.4,11.2 41.3,6.4 41.5,6.8 		"/>
		<polygon class="st0" points="32.9,12.8 32.7,12.5 39.5,7.7 39.8,8 		"/>
		
			<rect x="16.5" y="20.8" transform="matrix(0.8143 -0.5804 0.5804 0.8143 -8.3434 15.9175)" class="st0" width="8.4" height="0.4"/>
		<rect x="0.3" y="24.7" transform="matrix(0.8178 -0.5754 0.5754 0.8178 -13.5953 6.9184)" class="st0" width="7.6" height="0.4"/>
		
			<rect x="49" y="0.3" transform="matrix(1 -2.617982e-03 2.617982e-03 1 -1.150432e-03 0.1304)" class="st0" width="1.6" height="0.4"/>
		<polygon class="st0" points="55.2,11.9 52.2,10 52.2,2.9 52.6,2.9 52.6,9.8 55.4,11.6 		"/>
		<rect x="60.6" y="4.6" transform="matrix(0.7922 -0.6103 0.6103 0.7922 10.3752 40.0569)" class="st0" width="6.8" height="0.4"/>
		<rect x="60.5" y="6" transform="matrix(0.7915 -0.6112 0.6112 0.7915 9.4975 40.3157)" class="st0" width="6.8" height="0.4"/>
		<polyline class="st0" points="83.8,7.3 89.1,3.8 91.7,2 		"/>
		<rect x="88.5" y="1.5" transform="matrix(0.8275 -0.5615 0.5615 0.8275 14.5968 50.8863)" class="st0" width="3.2" height="0.4"/>
		<rect x="85.5" y="23.6" transform="matrix(0.8259 -0.5638 0.5638 0.8259 2.1397 54.5999)" class="st0" width="8" height="0.4"/>
		
			<rect x="113.3" y="16.7" transform="matrix(0.7943 -0.6075 0.6075 0.7943 13.7463 74.467)" class="st0" width="7.2" height="0.4"/>
		<rect x="150" y="2.6" transform="matrix(0.8242 -0.5663 0.5663 0.8242 25.4287 87.5335)" class="st0" width="7.4" height="0.4"/>
		
			<rect x="149.2" y="5.7" transform="matrix(0.8272 -0.5619 0.5619 0.8272 22.8267 86.0286)" class="st0" width="4.2" height="0.4"/>
		
			<rect x="160.9" y="2.5" transform="matrix(0.8434 -0.5373 0.5373 0.8434 24.3237 88.8154)" class="st0" width="7.3" height="0.4"/>
		<rect x="151.1" y="23" transform="matrix(0.836 -0.5487 0.5487 0.836 12.7885 89.2099)" class="st0" width="9.1" height="0.4"/>
		<rect x="167.2" y="23.8" transform="matrix(0.8357 -0.5492 0.5492 0.8357 14.853 97.606)" class="st0" width="6.6" height="0.4"/>
		<rect x="183" y="20.1" transform="matrix(0.8002 -0.5997 0.5997 0.8002 25.1914 116.2424)" class="st0" width="8" height="0.4"/>
		<rect x="192" y="23.9" transform="matrix(0.8306 -0.5569 0.5569 0.8306 19.5583 112.619)" class="st0" width="5.7" height="0.4"/>
		
			<rect x="209.2" y="23.8" transform="matrix(0.8306 -0.5569 0.5569 0.8306 22.5124 122.1276)" class="st0" width="5.7" height="0.4"/>
		<rect x="209.2" y="2.6" transform="matrix(0.837 -0.5473 0.5473 0.837 33.0837 116.7171)" class="st0" width="6.5" height="0.4"/>
		
			<rect x="216.2" y="7.3" transform="matrix(0.8623 -0.5063 0.5063 0.8623 27.3864 115.7446)" class="st0" width="20.7" height="0.4"/>
	</g>
</g>
</svg>
