<?xml version="1.0" encoding="utf-8"?>
<!-- Generator: Adobe Illustrator 24.1.0, SVG Export Plug-In . SVG Version: 6.00 Build 0)  -->
<svg version="1.1" id="圖層_1" xmlns="http://www.w3.org/2000/svg" xmlns:xlink="http://www.w3.org/1999/xlink" x="0px" y="0px"
	 viewBox="0 0 82.8 30.7" style="enable-background:new 0 0 82.8 30.7;" xml:space="preserve">
<style type="text/css">
	.st0{fill:#C9CC3D;}
</style>
<g id="圖層_2_1_">
	<g id="圖層_1-2">
		<polygon class="st0" points="65.6,9 69.1,6.1 79.2,6.1 77.3,7.6 78,8.1 78,10.8 74,13.7 74,10.8 73.2,10.2 74.8,9 		"/>
		<path class="st0" d="M61.9,12.8l3.3-2.5c0,0,1.3-1,1.9-0.7s0.7,1,0.7,2.4v13.7l3.3-2.4l0.2,0.2L64,28.8V13.5
			c0-0.3,0.2-1.6-1.2-0.9L62,13L61.9,12.8z"/>
		<polygon class="st0" points="55.4,13.8 52.9,12.1 52.9,6.1 53.2,6.1 53.2,11.9 55.5,13.5 		"/>
		<rect x="63" y="7.6" transform="matrix(0.7938 -0.6082 0.6082 0.7938 8.8566 41.6435)" class="st0" width="5.8" height="0.4"/>
		<rect x="62.3" y="9" transform="matrix(0.7938 -0.6082 0.6082 0.7938 7.9405 41.7815)" class="st0" width="6.5" height="0.4"/>
		<path class="st0" d="M4.5,8.7v12.7L8.2,19V7.5c1.1,0.5,2.3,0.9,3.5,1.1l4-2.6c0,0-2.9,0.2-4.7-1.4L4.5,8.7z"/>
		<polygon class="st0" points="4.3,22.2 8.3,19.5 8.3,25.4 4.3,28 		"/>
		<path class="st0" d="M8.7,19.7l3.2-2.5c1.1-0.8,2.6-1,3.9-0.6c1.1,0.3,2.2,0.6,3.3,1l1-0.7V8.9l3.7-2.6v19.1L20,27.6v-9.9
			l-4.2,2.7c0,0-2.6-1-3.9-1.3c-0.7-0.3-1.6-0.2-2.4,0.2L8.8,20L8.7,19.7z"/>
		<path class="st0" d="M14.8,6.8l3.5-2.6c1.4,1.1,3,1.7,4.7,1.7l-3.7,2.7C19.3,8.7,16.4,8.4,14.8,6.8z"/>
		<rect x="3.3" y="26.6" transform="matrix(0.8129 -0.5824 0.5824 0.8129 -14.5854 8.2872)" class="st0" width="4.6" height="0.5"/>
		<polygon class="st0" points="19.8,28.3 19.5,27.9 23.5,25.1 23.8,25.4 		"/>
		<polygon class="st0" points="29.6,7 29.6,19.8 34.3,16.8 34.3,4.2 		"/>
		<polygon class="st0" points="29.6,20.9 29.6,27.5 34.5,24.4 34.3,17.9 		"/>
		<path class="st0" d="M40.8,4.9c0,0,3.5-1.8,3.5,1.7v22.5l4.4-2.7V3.2c0,0-1-3.2-3.9-1.2c-2.9,2-4,2.7-4,2.7L40.8,4.9z"/>
		<polygon class="st0" points="52.9,6.1 56,8.5 61.8,8.5 63.3,9.9 67,7 65.3,5.6 59.9,5.6 56.5,3.6 		"/>
		<polygon class="st0" points="19.3,8.6 19,8.3 24.3,4.5 24.6,4.7 		"/>
		<path class="st0" d="M11.6,8.6L18.2,4c0,0-0.4-0.2,0.3,0.3c0.5,0.5-0.8,1-0.8,1l-2.8,1.6L11.6,8.6z"/>
		<rect x="32.5" y="8.9" transform="matrix(0.8459 -0.5333 0.5333 0.8459 1.1317 22.2307)" class="st0" width="13.1" height="0.5"/>
		<polygon class="st0" points="44.2,29.4 44.2,28.8 64.1,15.6 64.3,16 		"/>
	</g>
</g>
</svg>
