<?xml version="1.0" encoding="utf-8"?>
<!-- Generator: Adobe Illustrator 24.1.0, SVG Export Plug-In . SVG Version: 6.00 Build 0)  -->
<svg version="1.1" id="圖層_1" xmlns="http://www.w3.org/2000/svg" xmlns:xlink="http://www.w3.org/1999/xlink" x="0px" y="0px"
	 viewBox="0 0 176.8 26.5" style="enable-background:new 0 0 176.8 26.5;" xml:space="preserve">
<style type="text/css">
	.st0{fill:#EC73A8;}
</style>
<g id="圖層_2_1_">
	<g id="圖層_1-2">
		<polygon class="st0" points="0,14.3 0,5.4 8.4,1.1 24.8,1.1 19.7,3.9 5,3.9 5,11.7 		"/>
		<path class="st0" d="M0.9,15.1l4.7-2.4l2.6,2.3l-1.5,0.8v5.9C6.7,21.8,7,22,7.2,21.9c0,0,0.1,0,0.1,0c0.6-0.2,6.9-3.4,6.9-3.4
			s-9.5,5.4-10,5.7c-0.4,0.2-0.8,0.4-1.2,0.4c-0.6,0-1.1-0.5-1.1-1.1c0,0,0-0.1,0-0.1v-5.9L2.7,17L0.9,15.1z"/>
		<polygon class="st0" points="5.6,24.7 10.1,22 21.1,22 17.5,24.6 		"/>
		<polygon class="st0" points="25.9,3.5 30.7,1.1 30.7,9 33.5,11.6 28.5,14.2 25.9,11.6 		"/>
		<polygon class="st0" points="26.5,15.9 31.4,13.3 31.4,23 26.5,25.6 		"/>
		<polygon class="st0" points="31.5,2.5 33.8,4.9 36.6,3.5 45.1,10.3 49.8,7.9 41,0.6 38.3,2.2 36.1,0 		"/>
		<path class="st0" d="M33.3,15.1l5-2.8c0,0,2.4-1.4,4.4,1.2c1.6,2.4,2.9,5,3.9,7.6l0.6,0.2v1.9l-5.1,2.6V24
			c-1.1-2.5-2.4-4.9-3.9-7.2c-1.6-2.3-2.1-2.7-3.5-2l-1.3,0.7L33.3,15.1z"/>
		<polygon class="st0" points="49.8,24.8 54.4,22 58.1,22 53.4,24.9 		"/>
		<path class="st0" d="M51.3,4.4l4.8-2.7c0.7-0.4,1.6-0.4,2.4,0c1.1,0.5,2.4,0.8,3.6,0.8l-4.8,2.6c-1.1-0.1-2.1-0.3-3.2-0.7
			c-0.6-0.4-1.4-0.4-2.1-0.1l-0.6,0.3L51.3,4.4z"/>
		<polygon class="st0" points="61.5,4.4 66.4,1.4 73.9,1.6 68.5,4.6 		"/>
		<path class="st0" d="M57.3,7.9l4.7-2.6l1.7,0.9v15c0,0.6,0.4,1.9,2.6,1.4l1-0.5l0.2,0.3c0,0-5.3,3-6,3.1s-2.5-0.2-2.5-1.6V8.6
			L57.3,7.9z"/>
		<polygon class="st0" points="63.4,25.6 68.4,22.7 71.8,22.7 67,25.6 		"/>
		<polygon class="st0" points="74.5,13.9 74.4,5.4 82.6,1.1 98.9,1.1 93.9,3.8 79.5,3.8 79.5,11.4 		"/>
		<path class="st0" d="M75,14.8l5-2.4l2.2,2.3l-1,0.5v6.2c0,0,0.2,0.4,0.8,0s2.2-1.3,2.2-1.3l0.3,0.5c0,0-3.7,2.1-4.9,2.8
			s-3.4,1.9-3.4-0.3s0-5.7,0-5.7l1-0.7L75,14.8z"/>
		<polygon class="st0" points="79.5,24.6 84.3,21.8 95.6,21.8 92,24.5 		"/>
		<polygon class="st0" points="99.8,14.1 99.8,4.3 104.7,1.6 104.7,11.2 106.7,12.4 101.9,15 100.8,14 99.8,14.5 		"/>
		<path class="st0" d="M109.7,3.8l5.6-2.9c0.4-0.2,1-0.2,1.4,0c0.6,0.4,2.8,1.8,2.8,1.8L114.9,5l-3.1-2.1l-2,1.1L109.7,3.8z"/>
		<polygon class="st0" points="114.6,7.6 114.6,6 119.3,3.6 119.3,5.9 114.6,8.2 		"/>
		<polygon class="st0" points="99.8,17.3 104.6,14.7 104.6,22.9 99.9,25.4 		"/>
		<path class="st0" d="M105.3,15.7c1.1-0.4,2.4,0,3,1c1.3,2,2.6,4.2,3.7,6.3l1.4-0.6l0.1,2.4l5-2.6v-3.3l-2,1
			c-0.9-1.8-1.8-3.6-2.9-5.3c-1.2-1.7-1.7-2.4-3.5-1.7s-5,2.4-5,2.4L105.3,15.7z"/>
		<polygon class="st0" points="124.9,13.5 124.9,5.9 132.3,1.5 147.5,1.5 143,4.3 129.3,4.4 129.3,11 		"/>
		<polygon class="st0" points="124.9,14.5 129.5,11.8 129.5,16.9 131.1,18.1 131.1,22.3 145.3,22.3 141.1,24.9 126.5,25 126.5,20.2 
			124.9,19.2 		"/>
		<path class="st0" d="M114.6,25l4.8-2.5l1.3,0.6l-4.4,2.6C116.3,25.6,114.8,25.7,114.6,25z"/>
		<polygon class="st0" points="130.9,12.8 135.3,10.2 135.3,12.4 144.2,12.4 139.8,15.1 130.9,15.1 		"/>
		<polygon class="st0" points="148.7,3.4 152.8,5.7 157.3,5.8 158.8,7 163,4.1 161.2,2.9 156.8,2.9 152.8,0.8 		"/>
		<polygon class="st0" points="161.5,6.2 172,6.2 170.1,7.3 171.1,7.9 171.1,10.8 175.7,8.1 175.6,5.3 174.8,4.8 176.8,3.4 
			165.6,3.4 		"/>
		<path class="st0" d="M157.1,10.5l3.8-2.5c0,0,1.8-1.1,2.3-0.9s0.7,0.5,0.7,2.4v13.9l-4.4,2.7v-15c0-0.7-0.1-1.5-0.9-1.1
			c-0.5,0.3-0.9,0.6-1.3,0.9L157.1,10.5z"/>
		<rect x="2.5" y="17.3" transform="matrix(0.8825 -0.4702 0.4702 0.8825 -6.5016 9.2712)" class="st0" width="25.6" height="0.7"/>
		<polygon class="st0" points="32.9,11.6 32.9,4 33.5,4 33.5,11.6 		"/>
		
			<rect x="26.2" y="14.1" transform="matrix(0.8841 -0.4673 0.4673 0.8841 -3.2989 15.6757)" class="st0" width="7.5" height="0.7"/>
		<polygon class="st0" points="42.3,12.1 41.7,11.6 49.4,7.6 50,8.1 		"/>
		<rect x="41.8" y="23.5" transform="matrix(0.8698 -0.4935 0.4935 0.8698 -5.7599 25.9361)" class="st0" width="9" height="0.7"/>
		<polygon class="st0" points="57.6,5.3 57.2,5 63,1.7 63.3,2 		"/>
		<rect x="56.3" y="4" transform="matrix(0.8758 -0.4827 0.4827 0.8758 5.6113 30.3448)" class="st0" width="10.9" height="0.5"/>
		<rect x="66.4" y="3.7" transform="matrix(0.8637 -0.5041 0.5041 0.8637 7.4845 35.5389)" class="st0" width="6.2" height="0.5"/>
		
			<rect x="61.4" y="22.8" transform="matrix(0.8861 -0.4635 0.4635 0.8861 -3.2302 32.9379)" class="st0" width="7.9" height="0.5"/>
		<path class="st0" d="M70.3,22.7c0.9-0.2,1.8-0.5,2.6-1l0.3,0.3l-3.9,2.2L70.3,22.7z"/>
		<polygon class="st0" points="102,15.1 101.7,14.8 115.5,7.3 115.7,7.7 		"/>
		<polygon class="st0" points="113.9,5.7 113.7,5.3 119.5,2.7 119.6,2.9 		"/>
		<polygon class="st0" points="99.8,17.5 99.8,16.9 107.6,12.8 107.8,13.2 100.1,17.3 100.1,17.3 		"/>
		<polygon class="st0" points="116.6,25.3 126.5,20.2 126,19.9 119.6,23.2 115.6,25.3 		"/>
		<rect x="127.6" y="7.4" transform="matrix(0.8766 -0.4813 0.4813 0.8766 12.986 65.876)" class="st0" width="14.6" height="0.5"/>
		<path class="st0" d="M130.7,15.5v-2.4l-2.2,1.3l-0.2-0.4l7.2-4.3v2.4h9.4l-5,3.2L130.7,15.5z M131,13h0.2v2l8.6-0.2l3.5-2.2h-8.2
			v-2L131,13z"/>
		<polygon class="st0" points="151.8,12.1 148.7,10.2 148.7,3.4 149.2,3.4 149.2,9.9 152,11.6 		"/>
		<rect x="158" y="4.5" transform="matrix(0.8321 -0.5546 0.5546 0.8321 24.4816 90.4508)" class="st0" width="7.3" height="0.5"/>
		<rect x="157.1" y="6" transform="matrix(0.836 -0.5487 0.5487 0.836 23.1137 89.8033)" class="st0" width="9.5" height="0.5"/>
		<rect x="158.9" y="23.5" transform="matrix(0.836 -0.5487 0.5487 0.836 13.8336 93.6744)" class="st0" width="9.5" height="0.5"/>
	</g>
</g>
</svg>
