<?xml version="1.0" encoding="utf-8"?>
<!-- Generator: Adobe Illustrator 24.1.0, SVG Export Plug-In . SVG Version: 6.00 Build 0)  -->
<svg version="1.1" id="圖層_1" xmlns="http://www.w3.org/2000/svg" xmlns:xlink="http://www.w3.org/1999/xlink" x="0px" y="0px"
	 viewBox="0 0 208.1 27" style="enable-background:new 0 0 208.1 27;" xml:space="preserve">
<style type="text/css">
	.st0{fill:#F39B3E;}
</style>
<g id="圖層_2_1_">
	<g id="圖層_1-2">
		<polygon class="st0" points="5.9,4.4 22,4.4 26,1.6 8.5,1.6 2.1,6.4 2.1,14 5.9,11.6 		"/>
		<path class="st0" d="M2.4,15L6,12.6c0.6,0.9,1.8,1.3,2.8,0.9c1.1-0.2,2.2-0.7,3-1.5l0.3,0.2l-7.6,5.2L2.4,15z"/>
		<polygon class="st0" points="6.6,17.6 6.2,17 9.6,14.7 21.3,14.7 21.6,15.3 18.3,17.6 		"/>
		<polygon class="st0" points="15.7,19.8 22.1,15.6 23.6,17.4 22.7,18 22.7,24.5 19.4,26.7 18.9,26.3 18.9,24.1 15,26.7 0,26.7 
			4.2,23.9 19.1,23.9 19.1,19.5 19.6,19 18.7,18 15.8,19.9 		"/>
		<polygon class="st0" points="26.8,13.2 26.8,6.2 34.8,1 50.9,1 46.8,3.8 31.5,3.8 30.6,4.4 30.6,10.8 		"/>
		<polygon class="st0" points="26.8,14 26.8,19.4 30.8,16.9 30.8,15.5 43.8,15.5 47.4,12.4 33.5,12.4 30.6,14.6 30.6,11.3 		"/>
		<path class="st0" d="M26.8,20.4l4.2-2.8v5.5h13.5L40.6,26H30.4c-1,0-3.6,0.4-3.6-1.3V20.4z"/>
		<rect x="28.9" y="7" transform="matrix(0.8487 -0.5289 0.5289 0.8487 1.6376 20.1123)" class="st0" width="14.2" height="0.4"/>
		<line class="st0" x1="15.6" y1="19.9" x2="22.2" y2="15.6"/>
		<path class="st0" d="M50.5,5.6v13.8l4-2.7V4.2c1.2,0.6,2.5,1,3.8,1.2l4.1-2.9C60.6,2.5,58.9,2,57.5,1L50.5,5.6z"/>
		<polygon class="st0" points="50.3,20.3 54.5,17.4 54.5,23.7 50.3,26.6 		"/>
		<path class="st0" d="M55,17.6l3.5-2.7c1.2-0.9,2.8-1.1,4.3-0.7c1.2,0.3,2.4,0.7,3.6,1.1l1.1-0.8V5.8l4-2.8v20.9l-4,2.4V15.4
			l-4.6,2.9c-1.4-0.5-2.8-1-4.3-1.4c-0.8-0.3-1.8-0.2-2.5,0.2l-0.8,0.7L55,17.6z"/>
		<path class="st0" d="M61.8,3.5l3.8-2.9c1.4,1.2,3.2,1.9,5.1,1.9l-4.1,2.9C66.6,5.4,63.4,5.2,61.8,3.5z"/>
		<polygon class="st0" points="74,3.3 74,7.9 78,5 78,0.6 		"/>
		<polygon class="st0" points="74.3,8.5 78.3,5.7 81.2,7.6 78.9,10.4 78.9,22 74.9,25.1 74.9,12.7 76.9,10.4 		"/>
		<polygon class="st0" points="75.8,25 79.4,22.3 94.6,22.3 91.1,25 		"/>
		<polygon class="st0" points="92.9,5.1 96.6,7.1 100.8,4.2 96.7,2.1 		"/>
		<polygon class="st0" points="96.8,7.7 96.8,14.8 101,12.3 101,5.1 		"/>
		<polygon class="st0" points="96.8,15.8 96.8,22.2 101.1,19.7 101.1,13 		"/>
		<path class="st0" d="M94.7,25l6.6-4.2c1.6,0,3.2,0.6,4.3,1.7l-4.6,2.7c0,0-2.6-2.3-3.8-1.5s-2.5,1.5-2.5,1.5L94.7,25z"/>
		<polygon class="st0" points="107.3,21.5 107.3,6.5 111.7,3.8 111.7,18.8 		"/>
		<polygon class="st0" points="108.3,22.9 112.7,20.2 120.1,23.7 116.1,26.3 		"/>
		<polygon class="st0" points="119.2,5.1 119.2,21 123.8,23.2 123.8,7.5 		"/>
		<polygon class="st0" points="119.6,4 124.4,6.6 127.9,3.8 123.1,1.3 		"/>
		<polygon class="st0" points="126.9,8.8 130.5,6.7 130.5,21.5 126.9,23.8 		"/>
		<polygon class="st0" points="127.4,24.2 129.8,24.8 133.3,22.8 131.1,21.9 		"/>
		<polygon class="st0" points="130.9,25.1 134.9,22.9 148.1,22.9 150.1,21.8 149,20.8 152.6,18.6 154.1,20.4 145.2,25.3 		"/>
		<polygon class="st0" points="129.3,5.8 133.2,3.3 148.4,3.3 144.2,5.8 		"/>
		<polygon class="st0" points="144.9,6.2 148.7,4 152.2,6 152.2,18.1 148.7,20.3 148.7,8.2 		"/>
		<polygon class="st0" points="157.1,10.9 157.1,2.2 160.7,3.6 160.7,9.8 163.5,12.6 160.1,14.7 156.2,11 		"/>
		<polygon class="st0" points="156.9,17.8 160.7,15.3 160.7,23.5 156.9,25.8 		"/>
		<polygon class="st0" points="161.2,3.7 164,5.8 168.5,3.3 176,9.8 169.6,12.8 170.7,13.2 180.5,8.6 171.1,0.7 166.4,3.3 164.1,2 
					"/>
		<path class="st0" d="M163.8,15.2c0,0,2.2-0.8,3.3-0.4s6.2,8.8,6.2,8.8v2.2h4l3.6-3.5h-4.6v-0.7c0,0-3.4-6.8-5-8.2
			s-4.2-0.6-4.7-0.4L163.8,15.2z"/>
		<polygon class="st0" points="183.4,4.8 183.4,18.8 188.1,16.6 188.1,2.3 		"/>
		<polygon class="st0" points="183.4,20.4 188.1,18.4 188.1,23.5 183.4,25.7 		"/>
		<polygon class="st0" points="192.6,3.7 192.6,26.5 197.5,23.2 197.5,0.9 		"/>
		<path class="st0" d="M199.7,2.6c0,0,3.9-1.7,3.9,3.3s-0.2,21.2-0.2,21.2l4.8-3.3V2.3c0,0,0.4-2.6-3.3-2.3L199.7,2.6z"/>
		<polygon class="st0" points="75.2,24.9 74.9,24.5 96.9,7.7 97.7,7.5 		"/>
		<polygon class="st0" points="94.9,25.3 94.7,24.9 101.3,20.8 101.5,21.1 		"/>
		
			<rect x="130.6" y="22.1" transform="matrix(0.8683 -0.4961 0.4961 0.8683 6.5682 69.3123)" class="st0" width="6.5" height="0.4"/>
		
			<rect x="158.3" y="14.9" transform="matrix(0.8304 -0.5572 0.5572 0.8304 18.932 92.4341)" class="st0" width="5.9" height="0.4"/>
		<rect x="163.1" y="4.9" class="st0" width="0.4" height="7.7"/>
		
			<rect x="187.4" y="8.4" transform="matrix(0.8915 -0.4531 0.4531 0.8915 16.7551 87.1685)" class="st0" width="5.9" height="0.4"/>
		<rect x="196.6" y="6" transform="matrix(0.8859 -0.4639 0.4639 0.8859 20.0478 93.9286)" class="st0" width="8.7" height="0.5"/>
	</g>
</g>
</svg>
