<?xml version="1.0" encoding="utf-8"?>
<!-- Generator: Adobe Illustrator 24.1.0, SVG Export Plug-In . SVG Version: 6.00 Build 0)  -->
<svg version="1.1" id="圖層_1" xmlns="http://www.w3.org/2000/svg" xmlns:xlink="http://www.w3.org/1999/xlink" x="0px" y="0px"
	 viewBox="0 0 209.5 26.9" style="enable-background:new 0 0 209.5 26.9;" xml:space="preserve">
<style type="text/css">
	.st0{fill:#67C3C9;}
</style>
<g id="圖層_2_1_">
	<g id="圖層_1-2">
		<path class="st0" d="M51.7,5.8v13.9l4-2.7V4.4c1.2,0.6,2.5,1,3.9,1.2l4.1-2.9c-1.8,0.1-3.5-0.4-4.9-1.4L51.7,5.8z"/>
		<polygon class="st0" points="51.6,20.5 55.9,17.6 55.9,24 51.7,26.9 		"/>
		<path class="st0" d="M56.4,17.9l3.5-2.7c1.2-0.9,2.8-1.2,4.3-0.7c1.2,0.3,2.4,0.7,3.6,1.1l1.1-0.8V5.9l4-2.8l0.1,21l-4.1,2.4V15.6
			l-4.6,3c-1.4-0.6-2.8-1-4.3-1.4c-0.9-0.3-1.8-0.2-2.6,0.2l-0.8,0.7L56.4,17.9z"/>
		<path class="st0" d="M63.1,3.7l3.8-2.9c1.4,1.2,3.3,1.9,5.1,1.9l-4.1,3C68,5.6,64.8,5.4,63.1,3.7z"/>
		<polygon class="st0" points="109.1,21.5 109,6.3 113.4,3.5 113.4,18.8 		"/>
		<polygon class="st0" points="110.4,22.6 114.8,19.9 122.4,23.4 118.4,26.1 		"/>
		<polygon class="st0" points="121,4.9 121,21 125.7,23.3 125.7,7.3 		"/>
		<polygon class="st0" points="121.4,3.8 126.3,6.3 129.8,3.5 125,0.9 		"/>
		<polygon class="st0" points="95.2,5.2 98.9,7.1 103.1,4.3 99,2.2 		"/>
		<polygon class="st0" points="99.1,7.8 99.1,14.8 103.3,12.4 103.3,5.2 		"/>
		<polygon class="st0" points="99.2,15.9 99.2,22.2 103.4,19.8 103.4,13.1 		"/>
		<path class="st0" d="M97.1,25l6.6-4.2c1.6,0,3.2,0.6,4.4,1.7l-4.6,2.7c0,0-2.6-2.3-3.8-1.5s-2.5,1.5-2.5,1.5L97.1,25z"/>
		<polygon class="st0" points="76.3,3.4 76.3,8.1 80.4,5.1 80.4,0.8 		"/>
		<polygon class="st0" points="76.7,8.6 80.7,5.8 83.5,7.7 81.3,10.5 81.3,22.1 77.3,25.1 77.3,12.8 79.3,10.5 		"/>
		<polygon class="st0" points="78.2,25.1 81.8,22.4 96.9,22.3 93.5,25 		"/>
		<polygon class="st0" points="77.6,24.9 77.3,24.6 99.2,7.7 100,7.6 		"/>
		<polygon class="st0" points="97.2,25.3 97,24.9 103.6,20.8 103.8,21.1 		"/>
		<polygon class="st0" points="129.4,8.7 132.9,6.6 133,21.1 129.4,23.4 		"/>
		<polygon class="st0" points="130,23.7 132.3,24.4 135.7,22.4 133.6,21.5 		"/>
		<polygon class="st0" points="133.3,24.7 137.4,22.5 150.3,22.5 152.2,21.4 151.1,20.4 154.7,18.3 156.1,20 147.4,24.8 		"/>
		<polygon class="st0" points="131.8,5.7 135.6,3.3 150.4,3.2 146.4,5.7 		"/>
		<polygon class="st0" points="147,6.1 150.8,3.9 154.3,5.8 154.3,17.8 150.8,19.9 150.8,8 		"/>
		<rect x="133.1" y="21.7" transform="matrix(0.867 -0.4983 0.4983 0.867 7.217 70.8003)" class="st0" width="6.3" height="0.4"/>
		<polygon class="st0" points="159.2,10.9 159.2,2.3 162.8,3.7 162.8,9.8 165.6,12.5 162.2,14.6 158.3,10.9 		"/>
		<polygon class="st0" points="159.1,17.6 162.8,15.2 162.8,23.3 159.1,25.5 		"/>
		<polygon class="st0" points="163.3,3.8 166,5.8 170.4,3.4 177.8,9.8 171.6,12.7 172.6,13.1 182.2,8.5 173,0.8 168.4,3.4 
			166.1,2.1 		"/>
		<path class="st0" d="M165.8,15c0,0,2.2-0.8,3.2-0.4s6.1,8.7,6.1,8.7v2.2h3.9l3.5-3.5h-4.5v-0.6c0,0-3.4-6.7-4.9-8
			s-4.1-0.5-4.6-0.4L165.8,15z"/>
		
			<rect x="161.5" y="14.6" transform="matrix(0.8375 -0.5464 0.5464 0.8375 18.5201 91.9403)" class="st0" width="4.7" height="0.5"/>
		
			<rect x="165.1" y="5" transform="matrix(1 -2.617982e-03 2.617982e-03 1 -2.235947e-02 0.4329)" class="st0" width="0.4" height="7.5"/>
		<polygon class="st0" points="185.3,4.8 185.3,18.6 189.8,16.4 189.8,2.3 		"/>
		<polygon class="st0" points="185.3,20.2 189.8,18.2 189.8,23.2 185.3,25.3 		"/>
		<polygon class="st0" points="194.2,3.7 194.3,26.1 199.1,22.8 199,1 		"/>
		<path class="st0" d="M201.2,2.6c0,0,3.8-1.7,3.8,3.2s-0.2,20.8-0.2,20.8l4.7-3.2l-0.1-21.1c0,0,0.4-2.5-3.2-2.2L201.2,2.6z"/>
		
			<rect x="189.1" y="8.3" transform="matrix(0.8903 -0.4554 0.4554 0.8903 17.1858 88.3779)" class="st0" width="5.7" height="0.4"/>
		
			<rect x="198.1" y="5.9" transform="matrix(0.8847 -0.4662 0.4662 0.8847 20.4768 95.0817)" class="st0" width="8.5" height="0.5"/>
		<polygon class="st0" points="0,4.8 0,18.4 4.5,16.3 4.5,2.2 		"/>
		<polygon class="st0" points="0,20 4.5,18 4.5,23 0.1,25.1 		"/>
		<polygon class="st0" points="8.9,3.6 8.9,25.9 13.7,22.6 13.6,0.9 		"/>
		<path class="st0" d="M15.8,2.5c0,0,3.8-1.7,3.8,3.2s-0.2,20.7-0.2,20.7l4.6-3.2l0-20.9c0,0,0.4-2.5-3.2-2.3L15.8,2.5z"/>
		<rect x="3.9" y="8.2" transform="matrix(0.8903 -0.4554 0.4554 0.8903 -3.0957 3.9822)" class="st0" width="5.7" height="0.4"/>
		<rect x="12.8" y="5.8" transform="matrix(0.8847 -0.4662 0.4662 0.8847 -0.855 8.6433)" class="st0" width="8.5" height="0.5"/>
		<polygon class="st0" points="28.5,13.5 28.5,6.4 36.1,1.5 51.9,1.5 48,4 33.3,4.1 32.2,4.7 32.2,11 		"/>
		<polygon class="st0" points="28.4,14.1 32.3,11.5 32.4,14.7 35.3,12.6 48.6,12.5 45.2,15.3 32.4,15.3 32.4,17 28.4,19.6 		"/>
		<rect x="30.8" y="7.1" transform="matrix(0.8441 -0.5361 0.5361 0.8441 1.911 21.2509)" class="st0" width="13.4" height="0.5"/>
		<path class="st0" d="M28.4,20.4l4-2.8v4.7c0,0.5,0.4,0.9,0.9,0.9c0,0,0,0,0,0l0,0h12.3L42,25.9H31.1c-0.7,0-2.7,0.1-2.8-1.4
			S28.4,20.4,28.4,20.4z"/>
	</g>
</g>
</svg>
